<mxfile host="Electron" agent="Mozilla/5.0 (Windows NT 10.0; Win64; x64) AppleWebKit/537.36 (KHTML, like Gecko) draw.io/24.7.17 Chrome/128.0.6613.36 Electron/32.0.1 Safari/537.36" version="24.7.17">
  <diagram name="Page-1" id="yPp5Pzeu_3k24b3OeVgP">
    <mxGraphModel dx="2390" dy="1393" grid="1" gridSize="10" guides="1" tooltips="1" connect="1" arrows="1" fold="1" page="1" pageScale="1" pageWidth="3300" pageHeight="4681" math="0" shadow="0">
      <root>
        <mxCell id="0" />
        <mxCell id="1" parent="0" />
        <mxCell id="wnklTN74sxI3t_YJX4by-5" value="" style="edgeStyle=orthogonalEdgeStyle;rounded=0;orthogonalLoop=1;jettySize=auto;html=1;" edge="1" parent="1" source="wnklTN74sxI3t_YJX4by-1" target="wnklTN74sxI3t_YJX4by-3">
          <mxGeometry relative="1" as="geometry" />
        </mxCell>
        <mxCell id="wnklTN74sxI3t_YJX4by-1" value="&lt;font style=&quot;font-size: 24px;&quot;&gt;Bắt đầu&lt;/font&gt;" style="ellipse;whiteSpace=wrap;html=1;" vertex="1" parent="1">
          <mxGeometry x="630" y="50" width="210" height="120" as="geometry" />
        </mxCell>
        <mxCell id="wnklTN74sxI3t_YJX4by-6" value="" style="edgeStyle=orthogonalEdgeStyle;rounded=0;orthogonalLoop=1;jettySize=auto;html=1;" edge="1" parent="1" source="wnklTN74sxI3t_YJX4by-3" target="wnklTN74sxI3t_YJX4by-4">
          <mxGeometry relative="1" as="geometry" />
        </mxCell>
        <mxCell id="wnklTN74sxI3t_YJX4by-3" value="&lt;font style=&quot;font-size: 24px;&quot;&gt;Khai báo biến N, biến Count gán giá trị = 0 và biến Current gán giá trị bằng 2 ( 2 là số nguyên tố nhỏ nhất )&lt;/font&gt;" style="rounded=0;whiteSpace=wrap;html=1;" vertex="1" parent="1">
          <mxGeometry x="575" y="270" width="320" height="170" as="geometry" />
        </mxCell>
        <mxCell id="wnklTN74sxI3t_YJX4by-8" value="" style="edgeStyle=orthogonalEdgeStyle;rounded=0;orthogonalLoop=1;jettySize=auto;html=1;" edge="1" parent="1" source="wnklTN74sxI3t_YJX4by-4" target="wnklTN74sxI3t_YJX4by-7">
          <mxGeometry relative="1" as="geometry" />
        </mxCell>
        <mxCell id="wnklTN74sxI3t_YJX4by-4" value="&lt;font style=&quot;font-size: 24px;&quot;&gt;Nhập N&lt;/font&gt;" style="shape=parallelogram;perimeter=parallelogramPerimeter;whiteSpace=wrap;html=1;fixedSize=1;" vertex="1" parent="1">
          <mxGeometry x="652.5" y="550" width="165" height="80" as="geometry" />
        </mxCell>
        <mxCell id="wnklTN74sxI3t_YJX4by-10" value="" style="edgeStyle=orthogonalEdgeStyle;rounded=0;orthogonalLoop=1;jettySize=auto;html=1;" edge="1" parent="1" source="wnklTN74sxI3t_YJX4by-7" target="wnklTN74sxI3t_YJX4by-9">
          <mxGeometry relative="1" as="geometry" />
        </mxCell>
        <mxCell id="wnklTN74sxI3t_YJX4by-7" value="&lt;font style=&quot;font-size: 24px;&quot;&gt;Dùng vòng lặp while, lặp đến khi biến Count nhỏ hơn N, gán giá trị isPrime = 1&lt;/font&gt;" style="rounded=0;whiteSpace=wrap;html=1;" vertex="1" parent="1">
          <mxGeometry x="575" y="740" width="320" height="170" as="geometry" />
        </mxCell>
        <mxCell id="wnklTN74sxI3t_YJX4by-13" style="edgeStyle=orthogonalEdgeStyle;rounded=0;orthogonalLoop=1;jettySize=auto;html=1;exitX=0;exitY=1;exitDx=0;exitDy=0;" edge="1" parent="1" source="wnklTN74sxI3t_YJX4by-9" target="wnklTN74sxI3t_YJX4by-11">
          <mxGeometry relative="1" as="geometry">
            <Array as="points">
              <mxPoint x="575" y="1110" />
              <mxPoint x="420" y="1110" />
            </Array>
          </mxGeometry>
        </mxCell>
        <mxCell id="wnklTN74sxI3t_YJX4by-9" value="&lt;font style=&quot;font-size: 24px;&quot;&gt;Dùng vòng lặp for, khai báo biến i bằng 2, lặp đến khi biến i nhỏ hơn căn bậc 2 của giá trị Current&lt;/font&gt;" style="rounded=0;whiteSpace=wrap;html=1;" vertex="1" parent="1">
          <mxGeometry x="575" y="1020" width="320" height="170" as="geometry" />
        </mxCell>
        <mxCell id="wnklTN74sxI3t_YJX4by-14" style="edgeStyle=orthogonalEdgeStyle;rounded=0;orthogonalLoop=1;jettySize=auto;html=1;entryX=0.5;entryY=0;entryDx=0;entryDy=0;" edge="1" parent="1" source="wnklTN74sxI3t_YJX4by-11" target="wnklTN74sxI3t_YJX4by-12">
          <mxGeometry relative="1" as="geometry" />
        </mxCell>
        <mxCell id="wnklTN74sxI3t_YJX4by-25" style="edgeStyle=orthogonalEdgeStyle;rounded=0;orthogonalLoop=1;jettySize=auto;html=1;exitX=1;exitY=0.5;exitDx=0;exitDy=0;entryX=0;entryY=0.5;entryDx=0;entryDy=0;" edge="1" parent="1" source="wnklTN74sxI3t_YJX4by-11" target="wnklTN74sxI3t_YJX4by-16">
          <mxGeometry relative="1" as="geometry">
            <mxPoint x="890" y="1390.3333333333335" as="targetPoint" />
          </mxGeometry>
        </mxCell>
        <mxCell id="wnklTN74sxI3t_YJX4by-11" value="&lt;font style=&quot;font-size: 24px;&quot;&gt;Nếu Current chia hết cho i dư 0&lt;/font&gt;" style="rhombus;whiteSpace=wrap;html=1;" vertex="1" parent="1">
          <mxGeometry x="310" y="1290" width="220" height="200" as="geometry" />
        </mxCell>
        <mxCell id="wnklTN74sxI3t_YJX4by-12" value="&lt;font style=&quot;font-size: 24px;&quot;&gt;Gán giá trị isPrime = 0&lt;/font&gt;" style="rounded=0;whiteSpace=wrap;html=1;" vertex="1" parent="1">
          <mxGeometry x="295" y="1610" width="250" height="130" as="geometry" />
        </mxCell>
        <mxCell id="wnklTN74sxI3t_YJX4by-19" style="edgeStyle=orthogonalEdgeStyle;rounded=0;orthogonalLoop=1;jettySize=auto;html=1;entryX=0.5;entryY=0;entryDx=0;entryDy=0;" edge="1" parent="1" source="wnklTN74sxI3t_YJX4by-16" target="wnklTN74sxI3t_YJX4by-17">
          <mxGeometry relative="1" as="geometry" />
        </mxCell>
        <mxCell id="wnklTN74sxI3t_YJX4by-16" value="&lt;font style=&quot;font-size: 24px;&quot;&gt;Nếu isPrime = 1&lt;/font&gt;" style="rhombus;whiteSpace=wrap;html=1;" vertex="1" parent="1">
          <mxGeometry x="895" y="1290" width="220" height="200" as="geometry" />
        </mxCell>
        <mxCell id="wnklTN74sxI3t_YJX4by-30" style="edgeStyle=orthogonalEdgeStyle;rounded=0;orthogonalLoop=1;jettySize=auto;html=1;entryX=1;entryY=0.5;entryDx=0;entryDy=0;" edge="1" parent="1" source="wnklTN74sxI3t_YJX4by-17" target="wnklTN74sxI3t_YJX4by-7">
          <mxGeometry relative="1" as="geometry">
            <Array as="points">
              <mxPoint x="1280" y="1675" />
              <mxPoint x="1280" y="825" />
            </Array>
          </mxGeometry>
        </mxCell>
        <mxCell id="wnklTN74sxI3t_YJX4by-17" value="&lt;font style=&quot;font-size: 24px;&quot;&gt;Tăng giá trị Count, Current lên 1 và in ra giá trị Current hiện tại&lt;/font&gt;" style="rounded=0;whiteSpace=wrap;html=1;" vertex="1" parent="1">
          <mxGeometry x="880" y="1610" width="250" height="130" as="geometry" />
        </mxCell>
        <mxCell id="wnklTN74sxI3t_YJX4by-22" value="&lt;font style=&quot;font-size: 24px;&quot;&gt;Kết thúc&lt;/font&gt;" style="ellipse;whiteSpace=wrap;html=1;" vertex="1" parent="1">
          <mxGeometry x="600" y="1810" width="210" height="120" as="geometry" />
        </mxCell>
        <mxCell id="wnklTN74sxI3t_YJX4by-27" style="edgeStyle=orthogonalEdgeStyle;rounded=0;orthogonalLoop=1;jettySize=auto;html=1;entryX=0.005;entryY=0.414;entryDx=0;entryDy=0;entryPerimeter=0;" edge="1" parent="1" source="wnklTN74sxI3t_YJX4by-12" target="wnklTN74sxI3t_YJX4by-7">
          <mxGeometry relative="1" as="geometry">
            <Array as="points">
              <mxPoint x="170" y="1675" />
              <mxPoint x="170" y="810" />
            </Array>
          </mxGeometry>
        </mxCell>
        <mxCell id="wnklTN74sxI3t_YJX4by-28" value="&lt;font style=&quot;font-size: 24px;&quot;&gt;TRUE&lt;/font&gt;" style="text;html=1;align=center;verticalAlign=middle;whiteSpace=wrap;rounded=0;" vertex="1" parent="1">
          <mxGeometry x="350" y="1530" width="60" height="30" as="geometry" />
        </mxCell>
        <mxCell id="wnklTN74sxI3t_YJX4by-29" value="&lt;font style=&quot;font-size: 24px;&quot;&gt;FALSE&lt;/font&gt;" style="text;html=1;align=center;verticalAlign=middle;whiteSpace=wrap;rounded=0;" vertex="1" parent="1">
          <mxGeometry x="700" y="1350" width="60" height="30" as="geometry" />
        </mxCell>
        <mxCell id="wnklTN74sxI3t_YJX4by-31" value="" style="endArrow=classic;html=1;rounded=0;exitX=1;exitY=0.75;exitDx=0;exitDy=0;" edge="1" parent="1" source="wnklTN74sxI3t_YJX4by-7">
          <mxGeometry width="50" height="50" relative="1" as="geometry">
            <mxPoint x="570" y="921" as="sourcePoint" />
            <mxPoint x="810" y="1869" as="targetPoint" />
            <Array as="points">
              <mxPoint x="1360" y="868" />
              <mxPoint x="1370" y="1869" />
            </Array>
          </mxGeometry>
        </mxCell>
        <mxCell id="wnklTN74sxI3t_YJX4by-32" value="&lt;font style=&quot;font-size: 24px;&quot;&gt;FALSE&lt;/font&gt;" style="text;html=1;align=center;verticalAlign=middle;whiteSpace=wrap;rounded=0;" vertex="1" parent="1">
          <mxGeometry x="1090" y="880" width="60" height="30" as="geometry" />
        </mxCell>
        <mxCell id="wnklTN74sxI3t_YJX4by-35" value="&lt;font style=&quot;font-size: 24px;&quot;&gt;TRUE&lt;/font&gt;" style="text;html=1;align=center;verticalAlign=middle;whiteSpace=wrap;rounded=0;" vertex="1" parent="1">
          <mxGeometry x="660" y="950" width="60" height="30" as="geometry" />
        </mxCell>
      </root>
    </mxGraphModel>
  </diagram>
</mxfile>
